<mxfile host="app.diagrams.net" modified="2022-07-07T09:30:49.470Z" agent="5.0 (Windows NT 10.0; Win64; x64) AppleWebKit/537.36 (KHTML, like Gecko) Chrome/103.0.0.0 Safari/537.36" etag="raF1aVdsO26x21hWoIU6" version="20.0.4" type="github">
  <diagram id="C5RBs43oDa-KdzZeNtuy" name="Page-1">
    <mxGraphModel dx="1422" dy="794" grid="1" gridSize="10" guides="1" tooltips="1" connect="1" arrows="1" fold="1" page="1" pageScale="1" pageWidth="827" pageHeight="1169" math="0" shadow="0">
      <root>
        <mxCell id="WIyWlLk6GJQsqaUBKTNV-0" />
        <mxCell id="WIyWlLk6GJQsqaUBKTNV-1" parent="WIyWlLk6GJQsqaUBKTNV-0" />
        <mxCell id="qRgQgAnPgAYWiBdmF2L4-2" value="Start" style="rounded=0;whiteSpace=wrap;html=1;" vertex="1" parent="WIyWlLk6GJQsqaUBKTNV-1">
          <mxGeometry x="350" y="90" width="120" height="60" as="geometry" />
        </mxCell>
        <mxCell id="qRgQgAnPgAYWiBdmF2L4-3" value="" style="rounded=0;html=1;jettySize=auto;orthogonalLoop=1;fontSize=11;endArrow=block;endFill=0;endSize=8;strokeWidth=1;shadow=0;labelBackgroundColor=none;edgeStyle=orthogonalEdgeStyle;exitX=0.5;exitY=1;exitDx=0;exitDy=0;entryX=0.5;entryY=0;entryDx=0;entryDy=0;" edge="1" parent="WIyWlLk6GJQsqaUBKTNV-1" source="qRgQgAnPgAYWiBdmF2L4-2">
          <mxGeometry relative="1" as="geometry">
            <mxPoint x="409.5" y="160" as="sourcePoint" />
            <mxPoint x="330" y="210" as="targetPoint" />
          </mxGeometry>
        </mxCell>
        <mxCell id="qRgQgAnPgAYWiBdmF2L4-5" value="" style="rounded=0;html=1;jettySize=auto;orthogonalLoop=1;fontSize=11;endArrow=block;endFill=0;endSize=8;strokeWidth=1;shadow=0;labelBackgroundColor=none;edgeStyle=orthogonalEdgeStyle;exitX=0.5;exitY=1;exitDx=0;exitDy=0;entryX=0.5;entryY=0;entryDx=0;entryDy=0;" edge="1" parent="WIyWlLk6GJQsqaUBKTNV-1" source="qRgQgAnPgAYWiBdmF2L4-2">
          <mxGeometry relative="1" as="geometry">
            <mxPoint x="560" y="170" as="sourcePoint" />
            <mxPoint x="490" y="210" as="targetPoint" />
          </mxGeometry>
        </mxCell>
        <mxCell id="qRgQgAnPgAYWiBdmF2L4-6" value="End" style="rounded=0;whiteSpace=wrap;html=1;" vertex="1" parent="WIyWlLk6GJQsqaUBKTNV-1">
          <mxGeometry x="350" y="610" width="120" height="60" as="geometry" />
        </mxCell>
        <mxCell id="qRgQgAnPgAYWiBdmF2L4-7" value="Satisfy file&lt;br&gt;requirements?" style="rhombus;whiteSpace=wrap;html=1;shadow=0;fontFamily=Helvetica;fontSize=12;align=center;strokeWidth=1;spacing=6;spacingTop=-4;" vertex="1" parent="WIyWlLk6GJQsqaUBKTNV-1">
          <mxGeometry x="440" y="297.5" width="100" height="80" as="geometry" />
        </mxCell>
        <mxCell id="qRgQgAnPgAYWiBdmF2L4-9" value="Yes" style="rounded=0;html=1;jettySize=auto;orthogonalLoop=1;fontSize=11;endArrow=block;endFill=0;endSize=8;strokeWidth=1;shadow=0;labelBackgroundColor=none;edgeStyle=orthogonalEdgeStyle;" edge="1" parent="WIyWlLk6GJQsqaUBKTNV-1">
          <mxGeometry x="-0.8106" y="21" relative="1" as="geometry">
            <mxPoint as="offset" />
            <mxPoint x="489.5" y="377.5" as="sourcePoint" />
            <mxPoint x="420" y="440" as="targetPoint" />
            <Array as="points">
              <mxPoint x="490" y="400" />
              <mxPoint x="420" y="400" />
            </Array>
          </mxGeometry>
        </mxCell>
        <mxCell id="qRgQgAnPgAYWiBdmF2L4-11" value="Throws an error&lt;br&gt;File is not compatible" style="rounded=1;whiteSpace=wrap;html=1;fontSize=12;glass=0;strokeWidth=1;shadow=0;" vertex="1" parent="WIyWlLk6GJQsqaUBKTNV-1">
          <mxGeometry x="630" y="306.25" width="120" height="62.5" as="geometry" />
        </mxCell>
        <mxCell id="qRgQgAnPgAYWiBdmF2L4-18" value="" style="endArrow=block;html=1;rounded=0;endFill=0;" edge="1" parent="WIyWlLk6GJQsqaUBKTNV-1">
          <mxGeometry width="50" height="50" relative="1" as="geometry">
            <mxPoint x="540" y="337" as="sourcePoint" />
            <mxPoint x="630" y="337.5" as="targetPoint" />
          </mxGeometry>
        </mxCell>
        <mxCell id="qRgQgAnPgAYWiBdmF2L4-20" value="No" style="text;html=1;strokeColor=none;fillColor=none;align=center;verticalAlign=middle;whiteSpace=wrap;rounded=0;" vertex="1" parent="WIyWlLk6GJQsqaUBKTNV-1">
          <mxGeometry x="550" y="306.25" width="60" height="30" as="geometry" />
        </mxCell>
        <mxCell id="qRgQgAnPgAYWiBdmF2L4-21" value="" style="endArrow=block;html=1;rounded=0;entryX=1;entryY=0.5;entryDx=0;entryDy=0;endFill=0;endSize=8;" edge="1" parent="WIyWlLk6GJQsqaUBKTNV-1" target="qRgQgAnPgAYWiBdmF2L4-2">
          <mxGeometry width="50" height="50" relative="1" as="geometry">
            <mxPoint x="690" y="306.25" as="sourcePoint" />
            <mxPoint x="690" y="120" as="targetPoint" />
            <Array as="points">
              <mxPoint x="690" y="120" />
            </Array>
          </mxGeometry>
        </mxCell>
        <mxCell id="qRgQgAnPgAYWiBdmF2L4-24" value="" style="endArrow=block;html=1;rounded=0;endFill=0;entryX=0.5;entryY=0;entryDx=0;entryDy=0;exitX=0.5;exitY=1;exitDx=0;exitDy=0;endSize=8;" edge="1" parent="WIyWlLk6GJQsqaUBKTNV-1" target="qRgQgAnPgAYWiBdmF2L4-7">
          <mxGeometry width="50" height="50" relative="1" as="geometry">
            <mxPoint x="490" y="250" as="sourcePoint" />
            <mxPoint x="590" y="250.5" as="targetPoint" />
          </mxGeometry>
        </mxCell>
        <mxCell id="qRgQgAnPgAYWiBdmF2L4-25" value="" style="endArrow=block;html=1;rounded=0;endFill=0;exitX=0.5;exitY=1;exitDx=0;exitDy=0;endSize=8;" edge="1" parent="WIyWlLk6GJQsqaUBKTNV-1">
          <mxGeometry width="50" height="50" relative="1" as="geometry">
            <mxPoint x="329.5" y="250" as="sourcePoint" />
            <mxPoint x="400" y="440" as="targetPoint" />
            <Array as="points">
              <mxPoint x="330" y="400" />
              <mxPoint x="400" y="400" />
            </Array>
          </mxGeometry>
        </mxCell>
        <mxCell id="qRgQgAnPgAYWiBdmF2L4-28" value="Upload a file" style="shape=parallelogram;perimeter=parallelogramPerimeter;whiteSpace=wrap;html=1;fixedSize=1;" vertex="1" parent="WIyWlLk6GJQsqaUBKTNV-1">
          <mxGeometry x="430" y="210" width="120" height="40" as="geometry" />
        </mxCell>
        <mxCell id="qRgQgAnPgAYWiBdmF2L4-29" value="Record Speech" style="shape=parallelogram;perimeter=parallelogramPerimeter;whiteSpace=wrap;html=1;fixedSize=1;" vertex="1" parent="WIyWlLk6GJQsqaUBKTNV-1">
          <mxGeometry x="270" y="210" width="120" height="40" as="geometry" />
        </mxCell>
        <mxCell id="qRgQgAnPgAYWiBdmF2L4-30" value="Generate&lt;br&gt;Text" style="shape=process;whiteSpace=wrap;html=1;backgroundOutline=1;" vertex="1" parent="WIyWlLk6GJQsqaUBKTNV-1">
          <mxGeometry x="350" y="440" width="120" height="60" as="geometry" />
        </mxCell>
      </root>
    </mxGraphModel>
  </diagram>
</mxfile>
